{
    "asset" : {
        "generator" : "Khronos glTF Blender I/O v1.1.45",
        "version" : "2.0"
    },
    "scene" : 0,
    "scenes" : [
        {
            "name" : "Scene",
            "nodes" : [
                0,
                1,
                2,
                3
            ]
        }
    ],
    "nodes" : [
        {
            "name" : "Light",
            "rotation" : [
                0.16907575726509094,
                0.7558803558349609,
                -0.27217137813568115,
                0.570947527885437
            ],
            "translation" : [
                4.076245307922363,
                5.903861999511719,
                -1.0054539442062378
            ]
        },
        {
            "name" : "Camera",
            "rotation" : [
                0.483536034822464,
                0.33687159419059753,
                -0.20870360732078552,
                0.7804827094078064
            ],
            "translation" : [
                7.358891487121582,
                4.958309173583984,
                6.925790786743164
            ]
        },
        {
            "mesh" : 0,
            "name" : "goodstory",
            "rotation" : [
                0.7071068286895752,
                0,
                0,
                0.7071067094802856
            ],
            "scale" : [
                0.009999999776482582,
                0.009999999776482582,
                0.009999999776482582
            ],
            "translation" : [
                -4.3760600090026855,
                6.086798667907715,
                -0.07602965831756592
            ]
        },
        {
            "mesh" : 1,
            "name" : "mur_creus\u00e9",
            "rotation" : [
                -1,
                0,
                0,
                7.549790126404332e-08
            ]
        }
    ],
    "materials" : [
        {
            "doubleSided" : true,
            "emissiveFactor" : [
                0,
                0,
                0
            ],
            "name" : "Material.002",
            "pbrMetallicRoughness" : {
                "baseColorFactor" : [
                    1,
                    1,
                    1,
                    1
                ],
                "metallicFactor" : 0,
                "roughnessFactor" : 0.4000000059604645
            }
        }
    ],
    "meshes" : [
        {
            "name" : "Mesh",
            "primitives" : [
                {
                    "attributes" : {
                        "POSITION" : 0,
                        "NORMAL" : 1,
                        "TEXCOORD_0" : 2
                    },
                    "indices" : 3
                }
            ]
        },
        {
            "name" : "Mesh.001",
            "primitives" : [
                {
                    "attributes" : {
                        "POSITION" : 4,
                        "NORMAL" : 5,
                        "TEXCOORD_0" : 6
                    },
                    "indices" : 7,
                    "material" : 0
                }
            ]
        }
    ],
    "accessors" : [
        {
            "bufferView" : 0,
            "componentType" : 5126,
            "count" : 2710,
            "max" : [
                1247.153564453125,
                116.61762237548828,
                981.7243041992188
            ],
            "min" : [
                -269.7026672363281,
                76.94750213623047,
                452.4390869140625
            ],
            "type" : "VEC3"
        },
        {
            "bufferView" : 1,
            "componentType" : 5126,
            "count" : 2710,
            "type" : "VEC3"
        },
        {
            "bufferView" : 2,
            "componentType" : 5126,
            "count" : 2710,
            "type" : "VEC2"
        },
        {
            "bufferView" : 3,
            "componentType" : 5123,
            "count" : 7779,
            "type" : "SCALAR"
        },
        {
            "bufferView" : 4,
            "componentType" : 5126,
            "count" : 2212,
            "max" : [
                31.775447845458984,
                18.789756774902344,
                1.030805230140686
            ],
            "min" : [
                -28.809749603271484,
                -18.107791900634766,
                -1.0373398065567017
            ],
            "type" : "VEC3"
        },
        {
            "bufferView" : 5,
            "componentType" : 5126,
            "count" : 2212,
            "type" : "VEC3"
        },
        {
            "bufferView" : 6,
            "componentType" : 5126,
            "count" : 2212,
            "type" : "VEC2"
        },
        {
            "bufferView" : 7,
            "componentType" : 5123,
            "count" : 10962,
            "type" : "SCALAR"
        }
    ],
    "bufferViews" : [
        {
            "buffer" : 0,
            "byteLength" : 32520,
            "byteOffset" : 0
        },
        {
            "buffer" : 0,
            "byteLength" : 32520,
            "byteOffset" : 32520
        },
        {
            "buffer" : 0,
            "byteLength" : 21680,
            "byteOffset" : 65040
        },
        {
            "buffer" : 0,
            "byteLength" : 15558,
            "byteOffset" : 86720
        },
        {
            "buffer" : 0,
            "byteLength" : 26544,
            "byteOffset" : 102280
        },
        {
            "buffer" : 0,
            "byteLength" : 26544,
            "byteOffset" : 128824
        },
        {
            "buffer" : 0,
            "byteLength" : 17696,
            "byteOffset" : 155368
        },
        {
            "buffer" : 0,
            "byteLength" : 21924,
            "byteOffset" : 173064
        }
    ],
    "buffers" : [
        {
            "byteLength" : 194988,
            "uri" : "data:application/octet-stream;base64,"
        }
    ]
}
