<svg width="128" height="46" viewBox="0 0 128 46" fill="none" xmlns="http://www.w3.org/2000/svg">
<path d="M82.7645 31.1011C82.1927 29.1591 80.0861 28.2488 78.2203 29.1288C77.5884 29.4322 77.1971 29.8874 77.1971 30.646C77.1971 31.4046 77.6786 31.7384 78.2805 31.9508C79.9056 32.5273 81.5908 32.8004 83.2159 33.2859C84.7808 33.7714 86.0447 34.6817 86.5262 36.3506C87.098 38.3533 86.3155 40.4774 84.5099 41.4484C81.5005 43.0566 78.431 43.0263 75.4517 41.327C74.0072 40.5077 73.3452 39.1119 73.1947 37.443C73.1646 37.0789 73.2248 36.8968 73.6461 36.9272C74.5188 36.9575 75.3915 36.9272 76.2642 36.9272C76.4749 36.9272 76.6254 36.9272 76.6555 37.2003C76.8059 38.8388 77.8893 39.5367 79.3338 39.7492C80.2968 39.9009 81.2598 39.8402 82.1626 39.4154C82.7645 39.1423 83.1858 38.6871 83.2159 37.9589C83.246 37.2306 82.8548 36.7755 82.283 36.4417C81.0491 35.7741 79.6648 35.6224 78.3407 35.2583C77.5583 35.0155 76.7758 34.8334 76.0235 34.439C73.3452 33.0431 72.8937 29.857 75.0304 27.733C75.1508 27.6116 75.3012 27.4599 75.4517 27.2475C71.359 27.8847 67.5973 27.1868 64.3471 24.5772C61.097 21.9676 59.472 18.5388 59.2914 14.1389C58.2682 15.2009 57.3654 16.1416 56.4626 17.0823C53.1824 20.3897 49.8721 23.6669 46.5919 27.0047C46.2608 27.3385 45.9298 27.4902 45.4483 27.4599C39.2189 27.0654 34.3136 22.7869 33.0798 16.6574C31.6353 9.4356 36.8716 2.06204 44.1242 1.12138C51.3467 0.180715 57.546 4.58058 59.0506 11.7114C59.2011 12.47 59.3215 13.2286 59.2613 14.0479C59.5622 14.0175 59.6826 13.7748 59.8331 13.6231C63.8656 9.55698 67.9283 5.52124 71.9608 1.45516C72.2919 1.12138 72.6229 0.969656 73.1044 1C78.762 1.09103 83.9983 5.46055 85.3826 11.2259C86.7368 16.9002 84.0886 22.9386 79.0329 25.791C78.8824 25.882 78.7018 25.973 78.5213 26.0641C78.6416 26.3068 78.8824 26.1854 79.093 26.1854C80.4172 26.1247 81.7112 26.2765 82.945 26.7316C84.9613 27.4902 86.0146 29.0074 86.0447 31.1011C86.0447 31.1618 86.0447 31.2225 86.0447 31.2529C84.9914 31.2529 83.908 31.2225 82.8548 31.2225C82.8548 31.1922 82.8247 31.1315 82.7645 31.1011Z" fill="#0F0000"/>
<path d="M30.7626 27.0957C29.5589 26.2765 28.4755 25.5785 27.4222 24.7896C26.9708 24.4558 26.6699 24.4255 26.1884 24.7289C24.0517 26.0944 21.7044 26.8226 19.1766 27.0047C18.665 27.0351 18.5446 26.853 18.5446 26.3675C18.5747 23.06 18.5446 19.7525 18.5747 16.445C18.5747 15.9292 18.4844 15.7471 17.9126 15.7471C16.438 15.7775 16.438 15.7471 16.438 17.2036C16.438 20.2077 16.438 23.2421 16.438 26.2461C16.438 26.7923 16.3478 26.9744 15.7459 27.0047C11.9541 27.0957 8.43312 26.1854 5.51403 23.6669C1.96298 20.6021 0.337916 16.6574 1.24073 12.0148C2.20373 7.25083 5.15291 4.00404 9.75724 2.33512C11.4124 1.72824 13.1879 1.45515 14.9334 1.45515C19.327 1.4248 23.7508 1.45515 28.1445 1.4248C28.5959 1.4248 28.7765 1.48549 28.7765 2.00134C28.7464 5.33917 28.7765 8.677 28.7765 12.1665C24.6536 8.95009 20.591 5.79433 16.438 2.54753C16.438 2.88131 16.438 3.06338 16.438 3.27578C16.438 6.52258 16.4681 9.73903 16.4079 12.9858C16.4079 13.6231 16.5885 13.7141 17.1603 13.7141C21.4336 13.6837 25.737 13.7141 30.0103 13.6837C30.5821 13.6837 30.7927 13.7748 30.7927 14.412C30.7325 18.5994 30.7626 22.7566 30.7626 27.0957Z" fill="#0F0000"/>
<path d="M88.1814 14.2603C88.1814 10.2549 88.1814 6.27984 88.1814 2.27445C88.1814 1.7586 88.3017 1.57654 88.8434 1.57654C92.6051 1.60688 96.3969 1.57654 100.159 1.60688C105.395 1.66757 109.397 4.58058 110.872 9.37492C111.654 11.8935 111.685 14.503 111.293 17.0823C110.932 19.267 110.21 21.3001 108.765 23.0297C106.809 25.3662 104.281 26.6103 101.272 26.8227C97.0891 27.1261 92.9061 26.8833 88.723 26.9744C88.1513 26.9744 88.1814 26.6709 88.1814 26.2765C88.1814 22.2711 88.1814 18.2657 88.1814 14.2603Z" fill="#0F0000"/>
<path d="M116.169 30.9798C117.162 30.9798 118.155 31.0101 119.118 30.9798C119.539 30.9798 119.569 31.2529 119.659 31.526C120.442 33.7714 121.194 36.0169 121.977 38.2623C122.007 38.323 122.037 38.3837 122.127 38.5658C122.578 37.1699 123.03 35.8955 123.451 34.621C123.782 33.5894 124.143 32.5577 124.474 31.526C124.595 31.1618 124.715 30.9798 125.167 30.9798C126.069 31.0101 127.002 30.9798 127.995 30.9798C127.243 32.9218 126.521 34.7728 125.798 36.6541C124.926 38.9299 124.053 41.2057 123.15 43.4815C122.428 45.3021 121.375 46 119.419 46C118.847 46 118.245 45.9697 117.673 45.9697C117.312 45.9697 117.132 45.8483 117.192 45.4538C117.222 45.3324 117.192 45.2111 117.192 45.0897C117.192 44.5435 117.011 43.8759 117.252 43.5118C117.553 43.087 118.215 43.4815 118.757 43.4815C120.021 43.4511 120.592 42.5711 120.081 41.327C118.847 38.1409 117.613 34.9548 116.379 31.7991C116.289 31.526 116.108 31.3136 116.169 30.9798Z" fill="#0F0000"/>
<path d="M94.6816 36.7451C94.6816 33.2252 97.059 30.8584 100.64 30.8584C104.251 30.8584 106.689 33.2252 106.689 36.7755C106.689 40.3257 104.282 42.6622 100.64 42.6318C97.029 42.6015 94.6816 40.2954 94.6816 36.7451ZM103.469 36.6844C103.439 36.3506 103.439 36.0169 103.379 35.7134C103.168 34.2266 102.235 33.2859 100.821 33.2252C99.4364 33.1342 98.4434 33.8928 98.0822 35.2886C97.8114 36.29 97.8114 37.3216 98.1123 38.323C98.5035 39.6581 99.4063 40.3257 100.7 40.3257C101.994 40.2954 102.867 39.5974 103.258 38.2927C103.439 37.7465 103.409 37.2003 103.469 36.6844Z" fill="#0F0000"/>
<path d="M86.105 31.2529C86.105 31.1922 86.105 31.1315 86.105 31.1011C86.2855 31.1315 86.436 31.1618 86.6166 31.1618C87.9708 31.1922 87.9708 31.1922 88.0009 29.857C88.0009 29.6143 87.9708 29.3715 88.2416 29.2198C89.2046 28.6433 90.1676 28.0668 91.2209 27.4295C91.2209 28.5826 91.251 29.6143 91.2209 30.646C91.2209 31.0708 91.3413 31.2225 91.7626 31.1618C91.8529 31.1618 91.9432 31.1618 92.0635 31.1618C93.5983 31.1618 93.5682 31.1618 93.5682 32.679C93.5682 33.1645 93.4479 33.3162 92.9664 33.2859C92.4247 33.2556 91.6723 33.1038 91.3714 33.3769C90.9802 33.7107 91.251 34.4693 91.251 35.0458C91.2209 36.1686 91.251 37.2913 91.251 38.414C91.251 39.8098 91.5519 40.1133 92.9062 39.9919C93.4779 39.9312 93.6585 40.0526 93.5682 40.5988C93.5381 40.6898 93.5682 40.7808 93.5682 40.9022C93.5682 42.3891 93.5682 42.4194 92.0936 42.4498C91.4617 42.4498 90.8297 42.4194 90.2278 42.3587C88.8134 42.1767 88.0611 41.2967 88.031 39.8402C88.0009 37.8982 88.0009 35.9562 88.031 33.9838C88.031 33.468 87.9708 33.2556 87.3689 33.2859C86.105 33.3466 86.105 33.2859 86.105 32.0115C86.105 31.7384 86.105 31.4956 86.105 31.2529Z" fill="#0F0000"/>
<path d="M111.504 32.9218C112.317 31.7384 113.34 31.1012 114.724 31.0405C114.995 31.0405 115.175 31.0405 115.296 31.3439C115.597 32.1632 115.898 32.9825 116.199 33.8321C115.747 33.8018 115.326 33.7411 114.935 33.7411C112.918 33.7107 111.715 34.8638 111.685 36.8968C111.654 38.5051 111.654 40.1133 111.685 41.7215C111.685 42.207 111.594 42.4194 111.053 42.3891C110.36 42.3284 109.638 42.3587 108.946 42.3891C108.585 42.3891 108.434 42.3284 108.434 41.9339C108.434 38.5354 108.465 35.1369 108.434 31.708C108.434 31.2832 108.585 31.1618 108.976 31.1922C109.638 31.2225 110.27 31.2225 110.932 31.1922C111.384 31.1618 111.534 31.3136 111.504 31.7687C111.474 32.1328 111.504 32.5273 111.504 32.9218Z" fill="#0F0000"/>
<path d="M82.7645 31.1012C82.8247 31.1315 82.8548 31.1618 82.915 31.2225C82.8247 31.2529 82.7645 31.2225 82.7645 31.1012Z" fill="#0F0000"/>
</svg>
