<svg id="Calque_1" data-name="Calque 1" xmlns="http://www.w3.org/2000/svg" viewBox="0 0 729.17 365.94"><path d="M1058.91,544.24c-.57.66-1.1,1.35-1.72,2L885.43,719c-1.92,1.93-3.88,3.81-5.72,5.81a3.8,3.8,0,0,1-3.14,1.26A175.72,175.72,0,0,1,833,720.48,182.62,182.62,0,0,1,705.49,603.61a173.56,173.56,0,0,1-9.32-43.43c-3.88-46.78,7.92-89.22,36.25-126.65,27.23-36,63.26-58.7,107.35-68.44a175.16,175.16,0,0,1,49.57-3.63c40.83,2.68,76.89,17.26,107.84,43.94,30.35,26.17,50,59,58.94,98.08A175.07,175.07,0,0,1,1060.5,540c0,.38,0,.76,0,1.26.91-.06,1.23-.67,1.64-1.08q48.87-49.12,97.72-98.28,36-36.22,72-72.44c2.65-2.66,5.33-5.3,7.91-8a4.16,4.16,0,0,1,3.35-1.36c41.64,0,78.82,13.19,111.42,38.78,34.65,27.21,56.52,62.68,66,105.73a166.13,166.13,0,0,1,3.62,27.76c.15,3.18.52,6.36.48,9.56-.65,44.67-14.64,84.5-43.71,118.62-27,31.65-61,51.72-101.65,60.49a168.06,168.06,0,0,1-28,3.56c-47.73,2.11-90.17-11.93-126.78-42.54-32.77-27.41-53.26-62.4-61.74-104.31a148.14,148.14,0,0,1-3.23-31.64c0-.54,0-1.08,0-1.61Z" transform="translate(-695.45 -360.11)"/></svg>